<mxfile host="app.diagrams.net" modified="2023-06-04T02:24:44.650Z" agent="Mozilla/5.0 (Windows NT 10.0; Win64; x64) AppleWebKit/537.36 (KHTML, like Gecko) Chrome/113.0.0.0 Safari/537.36" version="21.3.5" etag="PWGKut6NThEmC4iyXzLb" type="github">
  <diagram name="第 1 页" id="ZrjA8M4QuJlITXD10wRI">
    <mxGraphModel>
      <root>
        <mxCell id="0" />
        <mxCell id="1" parent="0" />
      </root>
    </mxGraphModel>
  </diagram>
</mxfile>
